<svg xmlns="http://www.w3.org/2000/svg" width="320" height="320" viewBox="0 0 320 320">
  <g fill="none" stroke="#ffffff" stroke-opacity="0.035" stroke-width="2" stroke-linecap="round" stroke-linejoin="round">
    <!-- chat bubble -->
    <path d="M30 40h44a8 8 0 0 1 8 8v24a8 8 0 0 1-8 8H50l-12 10v-10h-8a8 8 0 0 1-8-8V48a8 8 0 0 1 8-8z"/>
    <!-- heart -->
    <path d="M250 46c-6-10-22-8-22 4 0 8 12 16 22 24 10-8 22-16 22-24 0-12-16-14-22-4z"/>
    <!-- smiley -->
    <circle cx="160" cy="120" r="20"/>
    <circle cx="153" cy="115" r="1.6" fill="#ffffff" fill-opacity="0.05" stroke="none"/>
    <circle cx="167" cy="115" r="1.6" fill="#ffffff" fill-opacity="0.05" stroke="none"/>
    <path d="M151 126c4 5 14 5 18 0"/>
    <!-- camera -->
    <rect x="40" y="200" width="44" height="32" rx="5"/>
    <circle cx="62" cy="216" r="9"/>
    <path d="M52 200l5-7h10l5 7"/>
    <!-- music note -->
    <path d="M256 196v34M256 196l18-5v30"/>
    <circle cx="250" cy="232" r="6"/>
    <circle cx="268" cy="227" r="6"/>
    <!-- phone -->
    <path d="M120 250c0 18 16 34 34 34l6-7-9-9-6 3c-6-3-12-9-15-15l3-6-9-9z"/>
    <!-- paper plane -->
    <path d="M210 96l36-14-14 36-7-13z"/>
    <!-- check -->
    <path d="M96 138l7 7 13-15"/>
  </g>
</svg>
